<?xml version="1.0" encoding="UTF-8"?>
<svg xmlns="http://www.w3.org/2000/svg" id="icons" viewBox="0 0 60 60" width="512" height="512"><path d="M30.64,14.125a1.652,1.652,0,0,0-1.28,0c-3.612,1.482-9.277,2.487-13.532,3.083L13,20.3V34.919A24.082,24.082,0,0,0,27.391,57.012l1.912.841a1.727,1.727,0,0,0,1.391,0l1.913-.841A24.083,24.083,0,0,0,47,34.919V20.3l-2.827-3.087C39.918,16.612,34.253,15.607,30.64,14.125ZM45,21.943v12.98A22.089,22.089,0,0,1,31.812,55.185a4.043,4.043,0,0,1-3.625,0A22.086,22.086,0,0,1,15,34.923V21.943a2.973,2.973,0,0,1,2.539-2.962A66.325,66.325,0,0,0,29,16.4a2.979,2.979,0,0,1,2,0,66.12,66.12,0,0,0,11.463,2.581A2.976,2.976,0,0,1,45,21.943Z"/><path d="M30.337,18.287a1.018,1.018,0,0,0-.674,0,68.034,68.034,0,0,1-11.824,2.671.987.987,0,0,0-.839.985v12.98A20.087,20.087,0,0,0,28.989,53.352l.611.267a1,1,0,0,0,.8,0l.611-.266A20.09,20.09,0,0,0,43,34.923V21.943a.987.987,0,0,0-.839-.985A67.932,67.932,0,0,1,30.337,18.287Zm7.449,10.331-11,14a1,1,0,0,1-.726.38L26,43a1,1,0,0,1-.707-.293l-3-3a1,1,0,0,1,1.414-1.414l2.2,2.2,10.3-13.114a1,1,0,1,1,1.572,1.236Z"/><path d="M21.513,6.8a.869.869,0,0,0-1.145-.086L9.6,14.81A1,1,0,1,1,8.4,13.216l1.887-1.431,1-4.512A3.01,3.01,0,0,1,14.039,4.93L28,4.112a1.069,1.069,0,0,0,.978-1.267A1.134,1.134,0,0,0,27.836,2H11.446A5.019,5.019,0,0,0,7.127,4.48L2.271,12.8A2.006,2.006,0,0,0,2,13.812V18a2,2,0,0,0,2,2H9.68a2,2,0,0,0,1.474-.649L21.543,8A.917.917,0,0,0,21.513,6.8Z"/><path d="M52.872,4.48A5.016,5.016,0,0,0,48.554,2H32.164a1.134,1.134,0,0,0-1.143.845A1.066,1.066,0,0,0,32,4.112l13.967.818a3.01,3.01,0,0,1,2.753,2.343l1,4.512L51.6,13.216A1,1,0,0,1,50.4,14.81L39.63,6.71A.878.878,0,0,0,38.457,8L48.846,19.35A2,2,0,0,0,50.32,20H56a2,2,0,0,0,2-2V13.812a2,2,0,0,0-.271-1.007Z"/></svg>
